<?xml version="1.0" encoding="UTF-8"?>
<svg width="150px" height="151px" viewBox="0 0 150 151" xmlns="http://www.w3.org/2000/svg" xmlns:xlink="http://www.w3.org/1999/xlink" version="1.1">
 <!-- Generated by Pixelmator Pro 2.0.6 -->
 <path id="Rectangle" d="M0 151 L150 151 150 0 0 0 Z" fill="#32aae6" fill-opacity="1" stroke="none"/>
 <g id="group">
  <path id="Path" d="M120.219 55.839 L94.062 29.682 C83.701 19.321 66.886 19.321 56.525 29.682 L30.283 55.839 C19.922 66.2 19.922 83.015 30.283 93.376 L56.525 119.618 C66.886 129.979 83.701 129.979 94.062 119.618 L101.535 112.144 90.665 101.274 82.852 109.087 C78.69 113.248 71.896 113.248 67.735 109.087 L40.814 82.251 C36.653 78.089 36.653 71.295 40.814 67.134 L67.735 40.128 C71.896 35.967 78.69 35.967 82.852 40.128 L109.773 67.049 C113.934 71.211 113.934 78.005 109.773 82.166 L101.705 90.234 112.575 101.104 120.304 93.376 C130.58 83.015 130.58 66.2 120.219 55.839 Z" fill="#ffffff" fill-opacity="1" stroke="none"/>
  <path id="Path-1" d="M91.854 69.172 L80.814 58.132 C77.756 55.075 72.831 55.075 69.858 58.132 L58.818 69.172 C55.761 72.23 55.761 77.155 58.818 80.128 L69.858 91.168 C72.916 94.225 77.841 94.225 80.814 91.168 L91.854 80.128 C94.826 77.07 94.826 72.145 91.854 69.172 Z" fill="#ffffff" fill-opacity="1" stroke="none"/>
 </g>
</svg>
