<svg xmlns="http://www.w3.org/2000/svg" viewBox="0 0 150 150.2"><g class="icon-color"><path d="M128.2 52.5L97.4 21.7c-12.2-12.2-32-12.2-44.2 0L22.3 52.5c-12.2 12.2-12.2 32 0 44.2l30.9 30.9c12.2 12.2 32 12.2 44.2 0l8.8-8.8L93.4 106l-9.2 9.2c-4.9 4.9-12.9 4.9-17.8 0L34.7 83.6c-4.9-4.9-4.9-12.9 0-17.8L66.4 34c4.9-4.9 12.9-4.9 17.8 0l31.7 31.7c4.9 4.9 4.9 12.9 0 17.8l-9.5 9.5 12.8 12.8 9.1-9.1c12.1-12.2 12.1-32-.1-44.2z"/><path d="M94.8 68.2l-13-13c-3.6-3.6-9.4-3.6-12.9 0l-13 13c-3.6 3.6-3.6 9.4 0 12.9l13 13c3.6 3.6 9.4 3.6 12.9 0l13-13c3.5-3.6 3.5-9.4 0-12.9z"/></g></svg>
